<svg width="100" height="100" viewBox="0 0 100 100" fill="none" xmlns="http://www.w3.org/2000/svg">
<g clip-path="url(#clip0_4300_11389)">
<rect width="100" height="100" rx="20" fill="white"/>
<path d="M76.392 42.1875H63.9489C63.7216 40.5777 63.2576 39.1477 62.5568 37.8977C61.8561 36.6288 60.9564 35.5492 59.858 34.6591C58.7595 33.7689 57.4905 33.0871 56.0511 32.6136C54.6307 32.1402 53.0871 31.9034 51.4205 31.9034C48.4091 31.9034 45.786 32.6515 43.5511 34.1477C41.3163 35.625 39.5833 37.7841 38.3523 40.625C37.1212 43.447 36.5057 46.875 36.5057 50.9091C36.5057 55.0568 37.1212 58.5417 38.3523 61.3636C39.6023 64.1856 41.3447 66.3163 43.5795 67.7557C45.8144 69.1951 48.3996 69.9148 51.3352 69.9148C52.983 69.9148 54.5076 69.697 55.9091 69.2614C57.3295 68.8258 58.589 68.1913 59.6875 67.358C60.786 66.5057 61.6951 65.4735 62.4148 64.2614C63.1534 63.0492 63.6648 61.6667 63.9489 60.1136L76.392 60.1705C76.0701 62.8409 75.2652 65.4167 73.9773 67.8977C72.7083 70.3598 70.9943 72.5663 68.8352 74.517C66.6951 76.4489 64.1383 77.983 61.1648 79.1193C58.2102 80.2367 54.8674 80.7955 51.1364 80.7955C45.947 80.7955 41.3068 79.6212 37.2159 77.2727C33.1439 74.9242 29.9242 71.5246 27.5568 67.0739C25.2083 62.6231 24.0341 57.2348 24.0341 50.9091C24.0341 44.5644 25.2273 39.1667 27.6136 34.7159C30 30.2652 33.2386 26.875 37.3295 24.5455C41.4205 22.197 46.0227 21.0227 51.1364 21.0227C54.5076 21.0227 57.6326 21.4962 60.5114 22.4432C63.4091 23.3902 65.9754 24.7727 68.2102 26.5909C70.4451 28.3901 72.2633 30.5966 73.6648 33.2102C75.0852 35.8239 75.9943 38.8163 76.392 42.1875Z" fill="url(#paint0_linear_4300_11389)"/>
<rect x="-1.875" y="79" width="27" height="15" transform="rotate(32.7984 -1.875 79)" fill="#0035CC"/>
<rect x="12" y="91" width="27.9314" height="15" fill="#1F52E2"/>
<rect x="65" y="91.6509" width="25.4473" height="10.557" transform="rotate(-8.24878 65 91.6509)" fill="#7E9FFE"/>
<rect x="35" y="91" width="27.9314" height="15" fill="#3868F0"/>
<rect x="101.5" y="21.5964" width="27" height="15" transform="rotate(-147.202 101.5 21.5964)" fill="#0035CC"/>
<rect x="87.625" y="9.59644" width="27.9314" height="15" transform="rotate(180 87.625 9.59644)" fill="#1F52E2"/>
<rect x="22.625" y="6.68286" width="27.9314" height="15" transform="rotate(147.728 22.625 6.68286)" fill="#7E9FFE"/>
<rect x="64.625" y="9.59644" width="27.9314" height="15" transform="rotate(-180 64.625 9.59644)" fill="#3868F0"/>
<rect x="41.625" y="9.59644" width="27.9314" height="15" transform="rotate(180 41.625 9.59644)" fill="#5680F7"/>
<rect width="27" height="15" transform="matrix(-0.541685 -0.840581 -0.840581 0.541685 24.2344 97.6958)" fill="#0035CC"/>
<rect width="27.9314" height="15" transform="matrix(0 -1 -1 0 10.5938 84.6257)" fill="#1F52E2"/>
<rect width="27.9314" height="15" transform="matrix(0.533936 -0.845525 -0.845525 -0.533936 7.67969 19.6257)" fill="#7E9FFE"/>
<rect width="27.9314" height="15" transform="matrix(0 -1 -1 0 10.5938 61.6257)" fill="#3868F0"/>
<rect width="27.9314" height="15" transform="matrix(0 -1 -1 0 10.5938 38.6257)" fill="#5680F7"/>
<rect x="78" y="104.5" width="27" height="15" transform="rotate(-57.2016 78 104.5)" fill="#0035CC"/>
<rect x="90" y="90.6257" width="27.9314" height="15" transform="rotate(-90 90 90.6257)" fill="#1F52E2"/>
<rect x="92.9141" y="25.6257" width="27.9314" height="15" transform="rotate(-122.272 92.9141 25.6257)" fill="#7E9FFE"/>
<rect x="90" y="67.6257" width="27.9314" height="15" transform="rotate(-90 90 67.6257)" fill="#3868F0"/>
<rect x="90" y="44.6257" width="27.9314" height="15" transform="rotate(-90 90 44.6257)" fill="#5680F7"/>
<rect x="-1.875" y="79" width="27" height="15" transform="rotate(32.7984 -1.875 79)" fill="#0035CC"/>
<rect x="20" y="91" width="27.9314" height="15" fill="#1F52E2"/>
<rect x="45" y="91" width="27.9314" height="15" fill="#3868F0"/>
<rect x="101.5" y="21.5967" width="27" height="15" transform="rotate(-147.202 101.5 21.5967)" fill="#0035CC"/>
<rect x="87.625" y="9.59668" width="27.9314" height="15" transform="rotate(180 87.625 9.59668)" fill="#1F52E2"/>
<rect x="22.625" y="6.68311" width="27.9314" height="15" transform="rotate(147.728 22.625 6.68311)" fill="#7E9FFE"/>
<rect x="64.625" y="9.59668" width="27.9314" height="15" transform="rotate(-180 64.625 9.59668)" fill="#3868F0"/>
<rect x="41.625" y="9.59668" width="27.9314" height="15" transform="rotate(180 41.625 9.59668)" fill="#5680F7"/>
<rect x="2.125" y="79.0293" width="27" height="15" transform="rotate(32.7984 2.125 79.0293)" fill="#0035CC"/>
<rect x="16" y="91.0298" width="27.9314" height="15" fill="#1F52E2"/>
<rect x="39" y="91.0298" width="27.9314" height="15" fill="#3868F0"/>
<rect x="62" y="91.0298" width="27.9314" height="15" fill="#5680F7"/>
<rect width="27" height="15" transform="matrix(-0.840581 0.541685 0.541685 0.840581 100.805 79.0293)" fill="#0035CC"/>
<rect width="27.9314" height="15" transform="matrix(-1 0 0 1 86.9297 91.0293)" fill="#1F52E2"/>
<rect x="70" y="92.9266" width="27.9314" height="15" transform="rotate(-32.3035 70 92.9266)" fill="#7E9FFE"/>
<rect x="75" y="98.7039" width="27" height="15" transform="rotate(-57.2333 75 98.7039)" fill="#0035CC"/>
<rect x="87.0234" y="83.9397" width="27.9314" height="15" transform="rotate(-90.0317 87.0234 83.9397)" fill="#1F52E2"/>
<rect x="87.0156" y="60.9397" width="27.9314" height="15" transform="rotate(-90.0317 87.0156 60.9397)" fill="#3868F0"/>
<rect x="87" y="37.9397" width="27.9314" height="15" transform="rotate(-90.0317 87 37.9397)" fill="#5680F7"/>
<rect x="30.6328" y="2.70825" width="27.9314" height="15" transform="rotate(147.91 30.6328 2.70825)" fill="#7E9FFE"/>
<rect x="22.6328" y="-1.83484" width="27" height="15" transform="rotate(122.98 22.6328 -1.83484)" fill="#0035CC"/>
<rect x="10.5859" y="12.0018" width="27.9314" height="15" transform="rotate(90.1816 10.5859 12.0018)" fill="#1F52E2"/>
<rect x="10.5156" y="35.0016" width="27.9314" height="15" transform="rotate(90.1816 10.5156 35.0016)" fill="#3868F0"/>
<rect x="10.4375" y="58.0016" width="27.9314" height="15" transform="rotate(90.1816 10.4375 58.0016)" fill="#5680F7"/>
<rect x="24.5938" y="3.12512" width="27" height="15" transform="rotate(122.798 24.5938 3.12512)" fill="#0035CC"/>
<rect width="27" height="15" transform="matrix(0.541685 0.840581 0.840581 -0.541685 75 3.12512)" fill="#0035CC"/>
<rect x="12.5938" y="16.9998" width="27.9314" height="15" transform="rotate(90 12.5938 16.9998)" fill="#1F52E2"/>
<rect x="9.67969" y="82" width="27.9314" height="15" transform="rotate(57.7282 9.67969 82)" fill="#7E9FFE"/>
<rect x="12.5938" y="39.9998" width="27.9314" height="15" transform="rotate(90 12.5938 39.9998)" fill="#3868F0"/>
<rect x="12.5938" y="63" width="27.9314" height="15" transform="rotate(90 12.5938 63)" fill="#5680F7"/>
<rect width="27.9314" height="15" transform="matrix(-0.847213 -0.531253 -0.531253 0.847213 32.6328 98.9177)" fill="#7E9FFE"/>
<rect width="27" height="15" transform="matrix(-0.544347 -0.83886 -0.83886 0.544347 24.6328 103.461)" fill="#0035CC"/>
<rect width="27.9314" height="15" transform="matrix(-0.00317009 -0.999995 -0.999995 0.00317009 12.5859 89.624)" fill="#1F52E2"/>
<rect width="27.9314" height="15" transform="matrix(-0.00317009 -0.999995 -0.999995 0.00317009 12.5156 66.6243)" fill="#3868F0"/>
<rect width="27.9314" height="15" transform="matrix(-0.00317009 -0.999995 -0.999995 0.00317009 12.4375 43.6243)" fill="#5680F7"/>
<rect x="75.0391" y="97.5002" width="27" height="15" transform="rotate(-57.2016 75.0391 97.5002)" fill="#0035CC"/>
<rect x="87.0391" y="83.6255" width="27.9314" height="15" transform="rotate(-90 87.0391 83.6255)" fill="#1F52E2"/>
<rect x="89.9531" y="18.6255" width="27.9314" height="15" transform="rotate(-122.272 89.9531 18.6255)" fill="#7E9FFE"/>
<rect x="87.0391" y="60.6255" width="27.9314" height="15" transform="rotate(-90 87.0391 60.6255)" fill="#3868F0"/>
<rect x="87.0391" y="37.6255" width="27.9314" height="15" transform="rotate(-90 87.0391 37.6255)" fill="#5680F7"/>
<rect width="27.9314" height="15" transform="matrix(0.847213 0.531253 0.531253 -0.847213 67 1.70776)" fill="#7E9FFE"/>
<rect width="27" height="15" transform="matrix(0.544347 0.83886 0.83886 -0.544347 75 -2.83521)" fill="#0035CC"/>
<rect width="27.9314" height="15" transform="matrix(0.00317009 0.999995 0.999995 -0.00317009 87.1172 34.0012)" fill="#3868F0"/>
<rect width="27.9314" height="15" transform="matrix(0.00317009 0.999995 0.999995 -0.00317009 87.1953 57.0012)" fill="#5680F7"/>
<rect width="27" height="15" transform="matrix(-0.840581 0.541685 0.541685 0.840581 98.6875 74.0363)" fill="#0035CC"/>
<rect width="27.9314" height="15" transform="matrix(-1 0 0 1 84.8125 86.0363)" fill="#1F52E2"/>
<rect width="27.9314" height="15" transform="matrix(-1 0 0 1 61.8125 86.0363)" fill="#3868F0"/>
<rect width="27.9314" height="15" transform="matrix(-1 0 0 1 38.8125 86.0363)" fill="#5680F7"/>
<rect x="-2.83594" y="74" width="27" height="15" transform="rotate(32.9801 -2.83594 74)" fill="#0035CC"/>
<rect x="12.1875" y="86.0459" width="27.9314" height="15" transform="rotate(0.181633 12.1875 86.0459)" fill="#1F52E2"/>
<rect x="35.1875" y="86.1188" width="27.9314" height="15" transform="rotate(0.181633 35.1875 86.1188)" fill="#3868F0"/>
<rect x="58.1875" y="86.1918" width="27.9314" height="15" transform="rotate(0.181633 58.1875 86.1918)" fill="#5680F7"/>
<rect x="83.8125" y="13.2441" width="27.9314" height="15" transform="rotate(180 83.8125 13.2441)" fill="#1F52E2"/>
<rect x="60.8125" y="13.2441" width="27.9314" height="15" transform="rotate(180 60.8125 13.2441)" fill="#3868F0"/>
<rect x="37.8125" y="13.2441" width="27.9314" height="15" transform="rotate(180 37.8125 13.2441)" fill="#5680F7"/>
<rect width="27" height="15" transform="matrix(0.83886 -0.544347 -0.544347 -0.83886 -3.83594 25.2803)" fill="#0035CC"/>
<rect width="27.9314" height="15" transform="matrix(0.999995 -0.00317009 -0.00317009 -0.999995 11.1875 13.2344)" fill="#1F52E2"/>
<rect width="27.9314" height="15" transform="matrix(0.999995 -0.00317009 -0.00317009 -0.999995 34.1875 13.1615)" fill="#3868F0"/>
<rect x="83.8125" y="13.2441" width="27.9314" height="15" transform="rotate(180 83.8125 13.2441)" fill="#1F52E2"/>
<rect x="60.8125" y="13.2441" width="27.9314" height="15" transform="rotate(180 60.8125 13.2441)" fill="#3868F0"/>
<rect x="37.8125" y="13.2441" width="27.9314" height="15" transform="rotate(180 37.8125 13.2441)" fill="#5680F7"/>
<rect width="27" height="15" transform="matrix(0.83886 -0.544347 -0.544347 -0.83886 -3.83594 25.2803)" fill="#0035CC"/>
<rect width="27.9314" height="15" transform="matrix(0.999995 -0.00317009 -0.00317009 -0.999995 11.1875 13.2344)" fill="#1F52E2"/>
<rect width="27.9314" height="15" transform="matrix(0.999995 -0.00317009 -0.00317009 -0.999995 34.1875 13.1615)" fill="#3868F0"/>
<rect x="99.9922" y="25.7146" width="29.7331" height="15" transform="rotate(-147.202 99.9922 25.7146)" fill="#0035CC"/>
<rect width="27.9314" height="15" transform="matrix(0.999995 -0.00317009 -0.00317009 -0.999995 57.1875 13.0884)" fill="#5680F7"/>
<rect width="27.9314" height="15" transform="matrix(0.00317009 0.999995 0.999995 -0.00317009 87.0469 11.0015)" fill="#1F52E2"/>
</g>
<defs>
<linearGradient id="paint0_linear_4300_11389" x1="51.5" y1="54.5" x2="34" y2="22.5" gradientUnits="userSpaceOnUse">
<stop stop-color="#5680F9"/>
<stop offset="1" stop-color="#6161BA"/>
</linearGradient>
<clipPath id="clip0_4300_11389">
<rect width="100" height="100" rx="20" fill="white"/>
</clipPath>
</defs>
</svg>
